<?xml version="1.0" standalone="no"?>
<!DOCTYPE svg PUBLIC "-//W3C//DTD SVG 1.1//EN" "http://www.w3.org/Graphics/SVG/1.1/DTD/svg11.dtd">
<svg t="1555470391343" class="icon" style="" viewBox="0 0 1024 1024" version="1.1" xmlns="http://www.w3.org/2000/svg" p-id="2050" xmlns:xlink="http://www.w3.org/1999/xlink" width="200" height="200" id="drag-handler">
  <defs>
    <style type="text/css"></style>
  </defs>
  <path d="M298.666667 810.666667v-85.333334h85.333333v85.333334H298.666667m170.666666 0v-85.333334h85.333334v85.333334h-85.333334m170.666667 0v-85.333334h85.333333v85.333334h-85.333333m-341.333333-170.666667v-85.333333h85.333333v85.333333H298.666667m170.666666 0v-85.333333h85.333334v85.333333h-85.333334m170.666667 0v-85.333333h85.333333v85.333333h-85.333333m-341.333333-170.666667V384h85.333333v85.333333H298.666667m170.666666 0V384h85.333334v85.333333h-85.333334m170.666667 0V384h85.333333v85.333333h-85.333333M298.666667 298.666667V213.333333h85.333333v85.333334H298.666667m170.666666 0V213.333333h85.333334v85.333334h-85.333334m170.666667 0V213.333333h85.333333v85.333334h-85.333333z" fill="" p-id="2051"></path>
</svg>
