<?xml version="1.0" encoding="UTF-8"?>
<svg width="20px" height="20px" style="height:20px;" viewBox="0 0 18 18" version="1.1" xmlns="http://www.w3.org/2000/svg" xmlns:xlink="http://www.w3.org/1999/xlink">
    <!-- Generator: Sketch 52.3 (67297) - http://www.bohemiancoding.com/sketch -->
    <title>teacher_ppt_bar_btn_finish</title>
    <desc>Created with Sketch.</desc>
    <g id="Demo" stroke="none" stroke-width="1" fill="none" fill-rule="evenodd" fill-opacity="0.776211504">
        <g id="教师端_白板" transform="translate(-957.000000, -578.000000)" fill="#FF3366">
            <g id="分组-6" transform="translate(484.000000, 569.000000)">
                <g id="Group-29">
                    <g id="teacher_ppt_bar_bj">
                        <g id="分组-10" transform="translate(382.000000, 9.000000)">
                            <g id="分组-5">
                                <g id="teacher_ppt_bar_btn_finish" transform="translate(91.000000, 0.000000)">
                                    <g id="icon/ppt/结束">
                                        <g id="结束" transform="translate(3.000000, 3.000000)">
                                            <path d="M6.13493151,13 C5.30684932,13 4.50547945,12.839726 3.77534247,12.5191781 C3.03630137,12.1986301 2.38630137,11.7534247 1.83424658,11.210274 C1.28219178,10.6671233 0.845890411,10.0082192 0.525342466,9.27808219 C0.204794521,8.5390411 0.0445205479,7.73767123 0.0445205479,6.90068493 C0.0445205479,6.41986301 0.0979452055,5.94794521 0.21369863,5.48493151 C0.329452055,5.02191781 0.489726027,4.57671233 0.694520548,4.15821918 C0.899315068,3.73972603 1.16643836,3.34794521 1.46917808,2.99178082 C1.78082192,2.62671233 2.12808219,2.29726027 2.5109589,2.00342466 C2.64452055,1.90547945 2.77808219,1.8609589 2.92945205,1.8609589 C2.96506849,1.8609589 3.00068493,1.8609589 3.04520548,1.86986301 C3.24109589,1.89657534 3.39246575,1.99452055 3.51712329,2.15479452 C3.64178082,2.31506849 3.67739726,2.48424658 3.65068493,2.68013699 C3.6239726,2.8760274 3.5260274,3.03630137 3.36575342,3.15205479 C2.76027397,3.58835616 2.27945205,4.14041096 1.95890411,4.79041096 C1.63835616,5.44041096 1.46917808,6.14383562 1.46917808,6.89178082 C1.46917808,7.53287671 1.59383562,8.13835616 1.83424658,8.70821918 C2.07465753,9.27808219 2.4130137,9.77671233 2.83150685,10.1952055 C3.25,10.6136986 3.74863014,10.9520548 4.31849315,11.2013699 C4.88835616,11.4506849 5.49383562,11.5753425 6.13493151,11.5753425 C6.7760274,11.5753425 7.39041096,11.4506849 7.95136986,11.2013699 C8.51232877,10.9520548 9.01986301,10.6136986 9.43835616,10.1952055 C9.85684932,9.77671233 10.1952055,9.27808219 10.4445205,8.70821918 C10.6938356,8.13835616 10.8184932,7.53287671 10.8184932,6.89178082 C10.8184932,6.13493151 10.640411,5.41369863 10.2931507,4.7369863 C9.94589041,4.06027397 9.44726027,3.49931507 8.81506849,3.0630137 C8.64589041,2.94726027 8.54794521,2.79589041 8.52123288,2.6 C8.48561644,2.40410959 8.53013699,2.2260274 8.6369863,2.05684932 C8.74383562,1.90547945 8.89520548,1.80753425 9.09109589,1.77191781 C9.13561644,1.7630137 9.18013699,1.7630137 9.22465753,1.7630137 C9.36712329,1.7630137 9.50068493,1.80753425 9.63424658,1.89657534 C10.0349315,2.18150685 10.4089041,2.51986301 10.7205479,2.88493151 C11.0410959,3.25 11.3171233,3.65068493 11.539726,4.07808219 C11.7623288,4.50547945 11.940411,4.95958904 12.0561644,5.43150685 C12.1719178,5.90342466 12.2342466,6.39315068 12.2342466,6.88287671 C12.2342466,7.71986301 12.0739726,8.52123288 11.7534247,9.26027397 C11.4328767,9.99931507 10.9876712,10.6493151 10.4445205,11.2013699 C9.90136986,11.7445205 9.24246575,12.189726 8.50342466,12.510274 C7.78219178,12.839726 6.98082192,13 6.13493151,13 Z M6.13493151,6.75821918 C5.9390411,6.75821918 5.77876712,6.6869863 5.63630137,6.55342466 C5.50273973,6.4109589 5.43150685,6.25068493 5.43150685,6.05479452 L5.43150685,0.721232877 C5.43150685,0.525342466 5.50273973,0.356164384 5.63630137,0.21369863 C5.77876712,0.0712328767 5.9390411,0 6.13493151,0 C6.33972603,0 6.50890411,0.0712328767 6.64246575,0.21369863 C6.78493151,0.356164384 6.84726027,0.525342466 6.84726027,0.721232877 L6.84726027,6.05479452 C6.84726027,6.25068493 6.7760274,6.4109589 6.64246575,6.55342466 C6.50890411,6.6869863 6.33972603,6.75821918 6.13493151,6.75821918 Z" id="Shape" fill-rule="nonzero"></path>
                                        </g>
                                    </g>
                                </g>
                            </g>
                        </g>
                    </g>
                </g>
            </g>
        </g>
    </g>
</svg>