<?xml version="1.0" standalone="no"?><!DOCTYPE svg PUBLIC "-//W3C//DTD SVG 1.1//EN" "http://www.w3.org/Graphics/SVG/1.1/DTD/svg11.dtd"><svg t="1560078592996" class="icon" style="" viewBox="0 0 1024 1024" version="1.1" xmlns="http://www.w3.org/2000/svg" p-id="2653" xmlns:xlink="http://www.w3.org/1999/xlink" width="200" height="200"><defs><style type="text/css"></style></defs><path d="M811.488 424.512Q722.976 336 597.984 336h-336l114.016-114.016q12-12 12-28.512t-12-28-28.512-11.488-28.512 12l-183.008 183.008q-12 12-12 28.512t12 28.512l178.016 178.016q12 12 28.512 12t28-11.488 11.488-28-11.008-28.512l-112.992-112h340q92 0 156.992 64.992t64.992 156.992v192q0 16.992 12 28.512t28.512 11.488 28-11.488 11.488-28.512v-192q0-124.992-88.512-213.504z" p-id="2654" fill="#cdcdcd"></path></svg>